<?xml version="1.0" encoding="utf-8"?>
<!-- Generator: Adobe Illustrator 15.0.2, SVG Export Plug-In . SVG Version: 6.00 Build 0)  -->
<!DOCTYPE svg PUBLIC "-//W3C//DTD SVG 1.1//EN" "http://www.w3.org/Graphics/SVG/1.1/DTD/svg11.dtd">
<svg version="1.1" id="レイヤー_1" xmlns="http://www.w3.org/2000/svg" xmlns:xlink="http://www.w3.org/1999/xlink" x="0px"
	 y="0px" width="300px" height="296.957px" viewBox="0 0 300 296.957" enable-background="new 0 0 300 296.957"
	 xml:space="preserve">
<g>
	<path fill="#FFFFFF" d="M257.381,281.058c20.636,0,24.017-9.469,26.384-49.717c4.396,3.043,11.159,6.088,16.235,7.441
		c-3.721,43.969-9.473,58.174-42.957,58.174H163.36c-35.513,0-45.999-7.441-45.999-38.558v-57.836L2.707,215.785L0,200.563
		l117.362-15.56v-61.555L12.514,138.332l-2.706-15.221l107.553-15.558V48.366C81.849,55.13,44.646,60.542,9.809,65.276
		C9.47,61.217,7.441,55.13,5.412,51.41C89.29,39.91,187.709,21.646,238.444,0l14.543,12.514
		c-31.117,12.514-73.732,23.675-119.391,32.469v60.542l132.92-18.603l2.705,14.882l-135.625,19.278v61.894l157.27-20.969
		l2.031,15.219l-159.301,21.309v60.201c0,17.59,5.075,22.322,29.424,22.322H257.381z"/>
</g>
</svg>
