<?xml version="1.0" encoding="utf-8"?>
<!-- Generator: Adobe Illustrator 15.0.2, SVG Export Plug-In . SVG Version: 6.00 Build 0)  -->
<!DOCTYPE svg PUBLIC "-//W3C//DTD SVG 1.1//EN" "http://www.w3.org/Graphics/SVG/1.1/DTD/svg11.dtd">
<svg version="1.1" xmlns="http://www.w3.org/2000/svg" xmlns:xlink="http://www.w3.org/1999/xlink" x="0px" y="0px" width="300px"
	 height="300px" viewBox="0 0 300 300" enable-background="new 0 0 300 300" xml:space="preserve">
<g id="レイヤー_2">
</g>
<g id="レイヤー_1">
	<path fill="#204495" d="M150,296.182c-39.046,0-75.756-15.205-103.366-42.815C19.024,225.756,3.818,189.047,3.818,150
		c0-39.046,15.206-75.756,42.815-103.366C74.244,19.024,110.954,3.818,150,3.818c39.047,0,75.756,15.206,103.366,42.815
		c27.61,27.61,42.815,64.32,42.815,103.366c0,39.047-15.205,75.756-42.815,103.366C225.756,280.977,189.047,296.182,150,296.182"/>
	<path fill="#FFFFFF" d="M150,7.636c78.625,0,142.363,63.739,142.363,142.364c0,78.625-63.738,142.363-142.363,142.363
		C71.375,292.363,7.636,228.625,7.636,150C7.636,71.375,71.375,7.636,150,7.636 M150,0c-20.247,0-39.891,3.967-58.389,11.791
		C73.748,19.346,57.707,30.16,43.934,43.934S19.346,73.748,11.791,91.611C3.967,110.109,0,129.753,0,150
		c0,20.246,3.967,39.892,11.791,58.389c7.555,17.863,18.369,33.903,32.143,47.677s29.814,24.588,47.677,32.143
		C110.109,296.034,129.753,300,150,300c20.246,0,39.892-3.966,58.389-11.791c17.863-7.555,33.903-18.37,47.677-32.143
		s24.588-29.814,32.143-47.677C296.033,189.892,300,170.246,300,150c0-20.247-3.967-39.891-11.791-58.389
		c-7.555-17.863-18.37-33.904-32.143-47.677s-29.814-24.587-47.677-32.143C189.892,3.967,170.246,0,150,0"/>
	<polygon fill="#FFFFFF" points="156.141,137.992 208.773,218.5 169.201,218.5 133.723,164.308 124.366,175.224 124.366,218.5 
		91.228,218.5 91.228,82.63 124.366,82.63 124.366,123.957 159.844,82.046 203.314,82.046 	"/>
</g>
</svg>
